# xmcd
#
# Track frame offsets:
#	150
#	11118
#	24435
#	34695
#	46572
#	57787
#	75627
#	85326
#	100400
#	113506
#	127914
#	139294
#	151862
#	162865
#	176088
#	187264
#	202591
#	211891
#	223996
#	234887
#	246863
#	256669
#	267676
#	280032
#
# Disc length: 3931 seconds
#
# Revision: 1
# Processed by: cddbd v1.5.1PL0 Copyright (c) Steve Scherf et al.
# Submitted via: audiograbber 1.83.01
#
DISCID=410f5918
DTITLE=Dolly Parton and Kenny Rogers - Kenny&Dolly
DYEAR=2003
DGENRE=Country
TTITLE0=It Wasn´t God Who Made Honky Tonk Angels
TTITLE1=Ruby, Don´t Take Your Love To Town
TTITLE2=Release Me
TTITLE3=Me And Bobby McGee
TTITLE4=Dumb Blonde
TTITLE5=Something´s Burning
TTITLE6=Something Fishy
TTITLE7=Just Dropped In
TTITLE8=Little Blossom
TTITLE9=Sunshine
TTITLE10=Making Believe
TTITLE11=Reuben James
TTITLE12=The Giving And The Taking
TTITLE13=Shine On Ruby Mountain
TTITLE14=What o You Think About Loving
TTITLE15=For The Good Times
TTITLE16=Busy Signal
TTITLE17=Elvira
TTITLE18=I Took Him For Granted
TTITLE19=What Am I Gonna Do
TTITLE20=Girl Left Alone
TTITLE21=Always Leaving, Always Gone
TTITLE22=As Long As I Love
TTITLE23=All God´s Children Lonely Children
EXTD=
EXTT0=
EXTT1=
EXTT2=
EXTT3=
EXTT4=
EXTT5=
EXTT6=
EXTT7=
EXTT8=
EXTT9=
EXTT10=
EXTT11=
EXTT12=
EXTT13=
EXTT14=
EXTT15=
EXTT16=
EXTT17=
EXTT18=
EXTT19=
EXTT20=
EXTT21=
EXTT22=
EXTT23=
PLAYORDER=
